<svg width="157" height="31" viewBox="0 0 157 31" fill="none" xmlns="http://www.w3.org/2000/svg">
<path d="M33.7774 7.52482C33.7774 6.48845 32.9373 5.64831 31.9009 5.64831C30.8645 5.64831 30.0244 6.48845 30.0244 7.52482L30.0244 23.4752C30.0244 24.5116 30.8645 25.3517 31.9009 25.3517C32.9373 25.3517 33.7774 24.5116 33.7774 23.4752V7.52482Z" fill="#009BFF"/>
<path d="M41.2835 14.0926C41.2835 13.0562 40.4433 12.2161 39.4069 12.2161C38.3706 12.2161 37.5304 13.0562 37.5304 14.0926V16.9074C37.5304 17.9438 38.3706 18.7839 39.4069 18.7839C40.4433 18.7839 41.2835 17.9438 41.2835 16.9074V14.0926Z" fill="#009BFF"/>
<path d="M22.5182 18.7841C22.5182 19.8205 23.3583 20.6606 24.3947 20.6606C25.431 20.6606 26.2712 19.8205 26.2712 18.7841V12.6855C26.2712 11.6491 25.431 10.8089 24.3947 10.8089C23.3583 10.8089 22.5182 11.6491 22.5182 12.6855L22.5182 18.7841Z" fill="#009BFF"/>
<path d="M15.0122 19.7223C15.0122 20.7587 15.8523 21.5989 16.8887 21.5989C17.9251 21.5989 18.7652 20.7587 18.7652 19.7223L18.7652 11.278C18.7652 10.2417 17.9251 9.40153 16.8887 9.40153C15.8523 9.40153 15.0122 10.2417 15.0122 11.278V19.7223Z" fill="#009BFF"/>
<path d="M7.50612 21.1297C7.50612 22.1661 8.34626 23.0062 9.38263 23.0062C10.419 23.0062 11.2591 22.1661 11.2591 21.1297L11.2591 9.40153C11.2591 8.36516 10.419 7.52501 9.38263 7.52501C8.34626 7.52501 7.50612 8.36516 7.50612 9.40153L7.50612 21.1297Z" fill="#009BFF"/>
<path d="M2.05062e-07 16.4385C2.95665e-07 17.4749 0.840144 18.315 1.87651 18.315C2.91288 18.315 3.75303 17.4749 3.75303 16.4385V14.0928C3.75303 13.0565 2.91288 12.2163 1.87651 12.2163C0.840144 12.2163 -9.06023e-08 13.0565 0 14.0928L2.05062e-07 16.4385Z" fill="#009BFF"/>
<path d="M15.0122 12.2163V19.7223C15.0122 18.686 14.172 17.8459 13.1357 17.8459C12.0993 17.8459 11.2591 18.686 11.2591 19.7224V12.2163C11.2591 13.2527 12.0993 14.0928 13.1357 14.0928C14.172 14.0928 15.0122 13.2527 15.0122 12.2163Z" fill="#009BFF"/>
<path d="M37.5304 17.3765C37.5304 16.3401 36.6903 15.5 35.6539 15.5C34.6175 15.5 33.7774 16.3401 33.7774 17.3765V13.6235C33.7774 14.6599 34.6175 15.5 35.6539 15.5C36.6903 15.5 37.5304 14.6599 37.5304 13.6235V17.3765Z" fill="#009BFF"/>
<path d="M35.6626 21.5987C35.6597 21.5987 35.6568 21.5987 35.6539 21.5987C35.651 21.5987 35.6481 21.5987 35.6452 21.5987H35.6626Z" fill="#009BFF"/>
<path d="M64.6161 0.985168H68.8523V23.9725H64.6161V22.035C63.3682 23.6331 61.5949 24.4322 59.2962 24.4322C57.085 24.4322 55.1913 23.6003 53.615 21.9364C52.0607 20.2507 51.2835 18.1928 51.2835 15.7627C51.2835 13.3326 52.0607 11.2857 53.615 9.62182C55.1913 7.93609 57.085 7.09322 59.2962 7.09322C61.5949 7.09322 63.3682 7.8923 64.6161 9.49047V0.985168ZM56.8004 19.1123C57.6761 19.9661 58.7708 20.393 60.0843 20.393C61.3979 20.393 62.4816 19.9661 63.3354 19.1123C64.1892 18.2366 64.6161 17.1201 64.6161 15.7627C64.6161 14.4054 64.1892 13.2998 63.3354 12.446C62.4816 11.5703 61.3979 11.1324 60.0843 11.1324C58.7708 11.1324 57.6761 11.5703 56.8004 12.446C55.9466 13.2998 55.5197 14.4054 55.5197 15.7627C55.5197 17.1201 55.9466 18.2366 56.8004 19.1123Z" fill="#040432"/>
<path d="M76.306 17.5032C76.8752 19.5611 78.4186 20.59 80.9363 20.59C82.5564 20.59 83.7823 20.0427 84.6143 18.9481L88.0295 20.9184C86.4095 23.2609 84.0232 24.4322 80.8706 24.4322C78.1559 24.4322 75.9776 23.6112 74.3357 21.9693C72.6937 20.3273 71.8727 18.2585 71.8727 15.7627C71.8727 13.2888 72.6828 11.2309 74.3028 9.58898C75.9229 7.92514 78.0027 7.09322 80.5422 7.09322C82.9504 7.09322 84.9317 7.92514 86.4861 9.58898C88.0624 11.2528 88.8505 13.3107 88.8505 15.7627C88.8505 16.31 88.7958 16.8902 88.6863 17.5032H76.306ZM76.2403 14.2193H84.6143C84.3734 13.1028 83.8699 12.2708 83.1037 11.7235C82.3593 11.1762 81.5055 10.9025 80.5422 10.9025C79.4038 10.9025 78.4624 11.1981 77.7181 11.7892C76.9737 12.3584 76.4811 13.1684 76.2403 14.2193Z" fill="#040432"/>
<path d="M91.8078 23.9725V0H96.044V23.9725H91.8078Z" fill="#040432"/>
<path d="M102.023 5.58263C101.322 5.58263 100.709 5.33086 100.184 4.82733C99.6805 4.30191 99.4287 3.68891 99.4287 2.98835C99.4287 2.28778 99.6805 1.67479 100.184 1.14936C100.709 0.62394 101.322 0.361228 102.023 0.361228C102.745 0.361228 103.358 0.62394 103.862 1.14936C104.387 1.67479 104.65 2.28778 104.65 2.98835C104.65 3.68891 104.387 4.30191 103.862 4.82733C103.358 5.33086 102.745 5.58263 102.023 5.58263ZM99.9213 23.9725V7.55297H104.158V23.9725H99.9213Z" fill="#040432"/>
<path d="M120.612 7.55297H124.75V23.1843C124.75 25.7239 123.907 27.6614 122.221 28.9968C120.557 30.3323 118.543 31 116.179 31C114.406 31 112.84 30.6607 111.483 29.982C110.148 29.3033 109.119 28.3072 108.396 26.9936L112.008 24.9248C112.84 26.4573 114.274 27.2235 116.31 27.2235C117.646 27.2235 118.697 26.8732 119.463 26.1727C120.229 25.4721 120.612 24.476 120.612 23.1843V21.411C119.364 23.0749 117.613 23.9068 115.358 23.9068C113.037 23.9068 111.089 23.0968 109.513 21.4767C107.958 19.8347 107.181 17.8425 107.181 15.5C107.181 13.1794 107.969 11.1981 109.545 9.55614C111.122 7.9142 113.059 7.09322 115.358 7.09322C117.613 7.09322 119.364 7.92514 120.612 9.58898V7.55297ZM112.698 18.7511C113.574 19.583 114.679 19.9989 116.015 19.9989C117.35 19.9989 118.445 19.583 119.299 18.7511C120.174 17.8972 120.612 16.8136 120.612 15.5C120.612 14.2083 120.174 13.1465 119.299 12.3146C118.445 11.4608 117.35 11.0339 116.015 11.0339C114.679 11.0339 113.574 11.4608 112.698 12.3146C111.844 13.1465 111.417 14.2083 111.417 15.5C111.417 16.8136 111.844 17.8972 112.698 18.7511Z" fill="#040432"/>
<path d="M137.721 7.09322C139.516 7.09322 140.993 7.69527 142.154 8.89936C143.336 10.1035 143.927 11.7673 143.927 13.8909V23.9725H139.691V14.4163C139.691 13.3217 139.395 12.4898 138.804 11.9206C138.213 11.3294 137.425 11.0339 136.44 11.0339C135.345 11.0339 134.469 11.3732 133.813 12.0519C133.156 12.7306 132.828 13.7486 132.828 15.1059V23.9725H128.591V0.985168H132.828V9.39195C133.856 7.85946 135.487 7.09322 137.721 7.09322Z" fill="#040432"/>
<path d="M156.936 11.625H153.225V18.4555C153.225 19.0247 153.368 19.4407 153.652 19.7034C153.937 19.9661 154.353 20.1194 154.9 20.1631C155.448 20.185 156.126 20.1741 156.936 20.1303V23.9725C154.024 24.3008 151.967 24.0272 150.762 23.1515C149.58 22.2758 148.989 20.7105 148.989 18.4555V11.625H146.132V7.55297H148.989V4.23623L153.225 2.95551V7.55297H156.936V11.625Z" fill="#040432"/>
</svg>
